<?xml version="1.0" encoding="UTF-8" standalone="no"?>
<!-- Created with Inkscape (http://www.inkscape.org/) -->

<svg
   xmlns:dc="http://purl.org/dc/elements/1.1/"
   xmlns:cc="http://creativecommons.org/ns#"
   xmlns:rdf="http://www.w3.org/1999/02/22-rdf-syntax-ns#"
   xmlns:svg="http://www.w3.org/2000/svg"
   xmlns="http://www.w3.org/2000/svg"
   xmlns:sodipodi="http://sodipodi.sourceforge.net/DTD/sodipodi-0.dtd"
   xmlns:inkscape="http://www.inkscape.org/namespaces/inkscape"
   width="100"
   height="100"
   viewBox="0 0 26.458333 26.458334"
   version="1.1"
   id="svg8"
   inkscape:version="0.92.4 5da689c313, 2019-01-14"
   sodipodi:docname="direccion.svg">
  <defs
     id="defs2" />
  <sodipodi:namedview
     id="base"
     pagecolor="#ffffff"
     bordercolor="#666666"
     borderopacity="1.0"
     inkscape:pageopacity="0.0"
     inkscape:pageshadow="2"
     inkscape:zoom="3.959798"
     inkscape:cx="13.969066"
     inkscape:cy="58.125542"
     inkscape:document-units="mm"
     inkscape:current-layer="layer1"
     showgrid="false"
     units="px"
     inkscape:window-width="1366"
     inkscape:window-height="674"
     inkscape:window-x="0"
     inkscape:window-y="0"
     inkscape:window-maximized="1" />
  <metadata
     id="metadata5">
    <rdf:RDF>
      <cc:Work
         rdf:about="">
        <dc:format>image/svg+xml</dc:format>
        <dc:type
           rdf:resource="http://purl.org/dc/dcmitype/StillImage" />
        <dc:title></dc:title>
      </cc:Work>
    </rdf:RDF>
  </metadata>
  <g
     inkscape:label="Layer 1"
     inkscape:groupmode="layer"
     id="layer1"
     transform="translate(0,-270.54165)">
    <path
       id="path10"
       d="m 0.29485177,283.82658 c 0,-2.34953 0.58737669,-4.52626 1.75061653,-6.51875 1.1632397,-1.99248 2.7411042,-3.57036 4.7335848,-4.7336 1.9924805,-1.16325 4.1577219,-1.73909 6.4957189,-1.73909 1.750617,0 3.432134,0.34563 5.03303,1.02502 1.600896,0.67952 2.971447,1.6124 4.134686,2.76415 1.16324,1.15171 2.08462,2.53377 2.764136,4.1462 0.679516,1.61238 1.025033,3.2824 1.025033,5.05607 0,1.75063 -0.345495,3.43214 -1.025033,5.03303 -0.679516,1.60089 -1.612415,2.98296 -2.764136,4.13467 -1.151722,1.15175 -2.53379,2.07311 -4.134686,2.75264 -1.600896,0.6795 -3.270895,1.02504 -5.03303,1.02504 -1.762138,0 -3.4551693,-0.34563 -5.0560655,-1.02504 -1.6008961,-0.67953 -2.9829641,-1.61243 -4.1462039,-2.76412 -1.1632398,-1.15176 -2.0731019,-2.53384 -2.7641358,-4.12319 -0.69103393,-1.5894 -1.01351503,-3.27091 -1.01351503,-5.03303 z m 2.85627083,0 c 0,2.72957 0.9904834,5.1021 2.982964,7.11762 1.9924805,1.99249 4.3650314,2.98296 7.1406854,2.98296 1.819719,0 3.512756,-0.44914 5.056065,-1.35899 1.543307,-0.9099 2.787169,-2.1307 3.69703,-3.68553 0.909862,-1.55483 1.370551,-3.23634 1.370551,-5.05606 0,-1.81973 -0.460689,-3.51276 -1.370551,-5.0676 -0.909861,-1.55483 -2.142204,-2.78716 -3.69703,-3.69703 -1.554829,-0.90985 -3.236346,-1.35903 -5.056065,-1.35903 -1.819724,0 -3.5127554,0.44918 -5.0560655,1.35903 -1.5433107,0.90987 -2.7871719,2.1422 -3.7085476,3.69703 -0.92138,1.55484 -1.3590363,3.24787 -1.3590363,5.0676 z m 5.631929,6.73757 4.3189604,-15.0991 c 0.01131,-0.11534 0.06908,-0.17282 0.172769,-0.17282 0.103644,0 0.161234,0.0575 0.17277,0.17282 l 4.307446,15.0991 c 0.04606,0.12674 0.03439,0.21895 -0.02307,0.28773 -0.0576,0.0692 -0.149741,0.0692 -0.276413,0 l -3.99648,-1.49726 c -0.11518,-0.0462 -0.230358,-0.0462 -0.334002,0 l -4.0310338,1.49726 c -0.11518,0.0692 -0.1957966,0.0692 -0.2418509,0 -0.046054,-0.0693 -0.092152,-0.17282 -0.069082,-0.28773 z"
       inkscape:connector-curvature="0"
       style="fill:#263238;fill-opacity:1;stroke-width:1.15172315" />
  </g>
</svg>
