<?xml version="1.0" encoding="UTF-8" standalone="no"?>
<!-- Created with Inkscape (http://www.inkscape.org/) -->

<svg
   xmlns:dc="http://purl.org/dc/elements/1.1/"
   xmlns:cc="http://creativecommons.org/ns#"
   xmlns:rdf="http://www.w3.org/1999/02/22-rdf-syntax-ns#"
   xmlns:svg="http://www.w3.org/2000/svg"
   xmlns="http://www.w3.org/2000/svg"
   xmlns:sodipodi="http://sodipodi.sourceforge.net/DTD/sodipodi-0.dtd"
   xmlns:inkscape="http://www.inkscape.org/namespaces/inkscape"
   width="60"
   height="60"
   viewBox="0 0 15.874999 15.875002"
   version="1.1"
   id="svg8"
   inkscape:version="0.92.4 5da689c313, 2019-01-14"
   sodipodi:docname="humedadsmall.svg">
  <defs
     id="defs2" />
  <sodipodi:namedview
     id="base"
     pagecolor="#ffffff"
     bordercolor="#666666"
     borderopacity="1.0"
     inkscape:pageopacity="0.0"
     inkscape:pageshadow="2"
     inkscape:zoom="11.2"
     inkscape:cx="26.002789"
     inkscape:cy="38.719736"
     inkscape:document-units="mm"
     inkscape:current-layer="layer1"
     showgrid="false"
     units="px"
     inkscape:window-width="1366"
     inkscape:window-height="674"
     inkscape:window-x="0"
     inkscape:window-y="0"
     inkscape:window-maximized="1" />
  <metadata
     id="metadata5">
    <rdf:RDF>
      <cc:Work
         rdf:about="">
        <dc:format>image/svg+xml</dc:format>
        <dc:type
           rdf:resource="http://purl.org/dc/dcmitype/StillImage" />
        <dc:title></dc:title>
      </cc:Work>
    </rdf:RDF>
  </metadata>
  <g
     inkscape:label="Layer 1"
     inkscape:groupmode="layer"
     id="layer1"
     transform="translate(0,-281.12499)">
    <path
       id="path4589"
       d="m 1.9146464,290.86775 c 0,-0.72429 0.1975305,-1.55553 0.5925896,-2.49381 0.3950607,-0.93827 0.905347,-1.85184 1.530859,-2.72428 1.2839456,-1.69545 2.4032849,-2.9794 3.3415528,-3.84359 l 0.6172799,-0.59264 c 0.2057736,0.21403 0.4362117,0.41157 0.6831245,0.59264 0.3374501,0.34567 0.855965,0.91355 1.5473208,1.72014 0.691356,0.8066 1.292177,1.52262 1.786002,2.18107 0.58436,0.83128 1.086416,1.72839 1.489706,2.67489 0.403293,0.94649 0.60905,1.77777 0.60905,2.49379 0,0.82308 -0.156375,1.60494 -0.477363,2.35391 -0.320986,0.74898 -0.748969,1.39918 -1.292177,1.94238 -0.543208,0.5432 -1.193412,0.97943 -1.950609,1.30042 -0.7571992,0.32098 -1.5555514,0.48558 -2.3950543,0.48558 -0.8230415,0 -1.6049302,-0.15645 -2.3538989,-0.46912 -0.7489698,-0.31275 -1.399173,-0.73252 -1.9423809,-1.27571 -0.5432072,-0.53499 -0.97942,-1.18517 -1.3004044,-1.93414 -0.3209874,-0.74897 -0.4855971,-1.55557 -0.4855971,-2.41153 z m 1.8600769,-2.41151 c 0,0.6831 0.139919,1.22634 0.4279807,1.63786 0.2880526,0.40328 0.7242757,0.60903 1.3086394,0.60903 0.5925893,0 1.0288013,-0.2056 1.3250965,-0.60903 0.2880526,-0.4033 0.436212,-0.94652 0.4444422,-1.63786 -0.00845,-0.69135 -0.1563745,-1.23458 -0.4444422,-1.6461 -0.2880519,-0.40325 -0.7325072,-0.60904 -1.3250965,-0.60904 -0.5843637,0 -1.0205749,0.20562 -1.3086394,0.60904 -0.2880519,0.41152 -0.4279807,0.95475 -0.4279807,1.6461 z m 1.2921768,0 c 0,-0.12337 0,-0.22211 0,-0.28805 0,-0.0659 0.00806,-0.15648 0.016492,-0.27156 0.00809,-0.11507 0.016493,-0.20561 0.041157,-0.26349 0.024573,-0.0576 0.041157,-0.13151 0.074068,-0.19753 0.032911,-0.0659 0.074067,-0.12353 0.123465,-0.14796 0.057612,-0.0329 0.1152261,-0.0496 0.1892853,-0.0496 0.1152261,0 0.205774,0.033 0.2715976,0.0987 0.065857,0.0659 0.1152237,0.17297 0.1399174,0.31279 0.024571,0.14795 0.041157,0.26349 0.049365,0.37034 0.00806,0.10703 0.00806,0.24702 0.00806,0.42798 0,0.18945 0,0.32924 -0.00806,0.42802 -0.00809,0.0987 -0.024571,0.22208 -0.049365,0.37036 -0.024572,0.13997 -0.074068,0.24698 -0.1399174,0.31274 -0.065857,0.0659 -0.1563758,0.0987 -0.2715976,0.0987 -0.074067,0 -0.1316747,-0.0156 -0.1892853,-0.0494 -0.057612,-0.033 -0.09877,-0.0824 -0.123465,-0.14796 -0.032911,-0.0659 -0.057612,-0.13997 -0.074068,-0.19752 -0.016492,-0.0659 -0.032911,-0.15648 -0.041157,-0.26349 -0.00845,-0.11507 -0.016492,-0.20561 -0.016492,-0.26346 0,-0.0576 0,-0.15647 0,-0.27998 z m 0.4855944,6.37857 h 1.0864159 l 4.1069806,-8.83948 H 9.6347828 Z m 3.5390795,-2.46089 c 0.00845,0.69133 0.1646189,1.23455 0.4526746,1.6461 0.2880517,0.40329 0.7325064,0.60903 1.3168664,0.60903 0.592589,0 1.028802,-0.20565 1.31687,-0.60903 0.288052,-0.4033 0.42798,-0.95477 0.436212,-1.6461 -0.0082,-0.69138 -0.148162,-1.23457 -0.436212,-1.63785 -0.288053,-0.40329 -0.724281,-0.60907 -1.31687,-0.60907 -0.58436,0 -1.0288036,0.20563 -1.3168664,0.60907 -0.2962954,0.40328 -0.4444434,0.94647 -0.4526746,1.63785 z m 1.292177,0 c 0,-0.18947 0,-0.32923 0.0081,-0.428 0.0084,-0.0987 0.02457,-0.22209 0.04937,-0.37034 0.02457,-0.14797 0.07407,-0.247 0.13992,-0.31275 0.06586,-0.0659 0.156376,-0.0987 0.271597,-0.0987 0.07407,0 0.139918,0.0156 0.197529,0.0496 0.05761,0.0329 0.09877,0.0824 0.131676,0.15646 0.03291,0.074 0.05761,0.13996 0.08231,0.19753 0.02457,0.0576 0.03291,0.14797 0.04116,0.26348 l 0.0081,0.26346 v 0.27997 c 0,0.13153 0,0.23052 0,0.28805 l -0.0081,0.26347 -0.04116,0.26349 -0.08231,0.19753 -0.131676,0.15649 -0.197529,0.0494 c -0.115227,0 -0.205774,-0.033 -0.271597,-0.099 -0.06586,-0.0659 -0.115226,-0.17296 -0.13992,-0.31274 -0.02457,-0.14796 -0.04116,-0.27158 -0.04937,-0.3704 -0.0081,-0.0987 -0.0081,-0.24698 -0.0081,-0.43622 z"
       inkscape:connector-curvature="0"
       style="fill:#0277bd;fill-opacity:1;stroke-width:0.82304204" />
  </g>
</svg>
