<?xml version="1.0" encoding="UTF-8" standalone="no"?>
<!-- Created with Inkscape (http://www.inkscape.org/) -->

<svg
   xmlns:dc="http://purl.org/dc/elements/1.1/"
   xmlns:cc="http://creativecommons.org/ns#"
   xmlns:rdf="http://www.w3.org/1999/02/22-rdf-syntax-ns#"
   xmlns:svg="http://www.w3.org/2000/svg"
   xmlns="http://www.w3.org/2000/svg"
   xmlns:sodipodi="http://sodipodi.sourceforge.net/DTD/sodipodi-0.dtd"
   xmlns:inkscape="http://www.inkscape.org/namespaces/inkscape"
   width="100"
   height="100"
   viewBox="0 0 26.458333 26.458334"
   version="1.1"
   id="svg8"
   inkscape:version="0.92.4 5da689c313, 2019-01-14"
   sodipodi:docname="temperaturayellow.svg">
  <defs
     id="defs2" />
  <sodipodi:namedview
     id="base"
     pagecolor="#ffffff"
     bordercolor="#666666"
     borderopacity="1.0"
     inkscape:pageopacity="0.0"
     inkscape:pageshadow="2"
     inkscape:zoom="3.959798"
     inkscape:cx="15.075023"
     inkscape:cy="42.006713"
     inkscape:document-units="mm"
     inkscape:current-layer="layer1"
     showgrid="false"
     units="px"
     inkscape:window-width="1366"
     inkscape:window-height="674"
     inkscape:window-x="0"
     inkscape:window-y="0"
     inkscape:window-maximized="1" />
  <metadata
     id="metadata5">
    <rdf:RDF>
      <cc:Work
         rdf:about="">
        <dc:format>image/svg+xml</dc:format>
        <dc:type
           rdf:resource="http://purl.org/dc/dcmitype/StillImage" />
        <dc:title></dc:title>
      </cc:Work>
    </rdf:RDF>
  </metadata>
  <g
     inkscape:label="Layer 1"
     inkscape:groupmode="layer"
     id="layer1"
     transform="translate(0,-270.54165)">
    <path
       id="path4618"
       d="m 6.9386262,290.55542 c 0,-0.98595 0.2319995,-1.90228 0.6843521,-2.76062 0.4523699,-0.85833 1.090322,-1.56589 1.9138694,-2.13423 v -11.50642 c 0,-0.92795 0.3131875,-1.71665 0.9511313,-2.35461 0.637956,-0.63796 1.426698,-0.97432 2.354636,-0.97432 0.939536,0 1.728278,0.32485 2.366235,0.9627 0.637956,0.64958 0.962732,1.42672 0.962732,2.35467 v 11.50638 c 0.823541,0.56836 1.449898,1.2875 1.902268,2.13427 0.452368,0.84671 0.672753,1.77467 0.672753,2.76058 0,1.06712 -0.266763,2.06466 -0.788742,2.9694 -0.521967,0.90473 -1.241118,1.62387 -2.145856,2.14586 -0.904735,0.52195 -1.890663,0.78872 -2.96939,0.78872 -1.067129,0 -2.053056,-0.26655 -2.9577918,-0.78872 -0.9047375,-0.52199 -1.6238885,-1.24113 -2.1574505,-2.14586 -0.5335665,-0.90474 -0.7887465,-1.89065 -0.7887465,-2.9578 z m 2.0414595,0 c 0,1.07871 0.3827613,2.00666 1.1367173,2.7722 0.753948,0.76557 1.670284,1.14832 2.737411,1.14832 1.078723,0 2.00666,-0.38271 2.783806,-1.15991 0.777147,-0.77713 1.171518,-1.69346 1.171518,-2.74899 0,-0.71918 -0.185565,-1.39191 -0.556762,-2.00666 -0.371188,-0.61476 -0.881537,-1.09034 -1.531093,-1.42672 l -0.324762,-0.16227 c -0.115989,-0.0465 -0.174005,-0.16228 -0.174005,-0.33624 v -12.48076 c 0,-0.3713 -0.127571,-0.68433 -0.39438,-0.93951 -0.266764,-0.24376 -0.591557,-0.37133 -0.985932,-0.37133 -0.371188,0 -0.695953,0.12749 -0.962732,0.37133 -0.266764,0.24375 -0.39438,0.55676 -0.39438,0.93951 v 12.45756 c 0,0.17415 -0.05799,0.2898 -0.16238,0.33625 l -0.31319,0.16227 c -0.637956,0.33626 -1.1367171,0.81195 -1.4962937,1.42668 -0.35957,0.61476 -0.5335642,1.27594 -0.5335599,2.01827 z m 0.9047375,0 c 0,0.82352 0.2783798,1.5311 0.8467368,2.11105 0.568361,0.57994 1.241116,0.86996 2.041459,0.86996 0.800346,0 1.484698,-0.28978 2.076254,-0.86996 0.591561,-0.57995 0.881542,-1.28753 0.881542,-2.09943 0,-0.73076 -0.255188,-1.38033 -0.753952,-1.93709 -0.498761,-0.55676 -1.113522,-0.89314 -1.832668,-0.9859 v -8.53703 c 0,-0.0698 -0.03464,-0.15082 -0.115989,-0.22053 -0.0812,-0.081 -0.16238,-0.11624 -0.255189,-0.11624 -0.104386,0 -0.185565,0.035 -0.243572,0.0929 -0.05799,0.0698 -0.0928,0.13937 -0.0928,0.24375 v 8.5138 c -0.707552,0.10437 -1.310708,0.42919 -1.809473,0.98595 -0.498768,0.56837 -0.7423468,1.20633 -0.7423468,1.94865 z"
       inkscape:connector-curvature="0"
       style="stroke-width:1.15991914;fill:#ff6f00;fill-opacity:1" />
  </g>
</svg>
