<?xml version="1.0" encoding="UTF-8" standalone="no"?>
<!-- Created with Inkscape (http://www.inkscape.org/) -->

<svg
   xmlns:dc="http://purl.org/dc/elements/1.1/"
   xmlns:cc="http://creativecommons.org/ns#"
   xmlns:rdf="http://www.w3.org/1999/02/22-rdf-syntax-ns#"
   xmlns:svg="http://www.w3.org/2000/svg"
   xmlns="http://www.w3.org/2000/svg"
   xmlns:sodipodi="http://sodipodi.sourceforge.net/DTD/sodipodi-0.dtd"
   xmlns:inkscape="http://www.inkscape.org/namespaces/inkscape"
   width="100"
   height="100"
   viewBox="0 0 26.458333 26.458334"
   version="1.1"
   id="svg8"
   inkscape:version="0.92.4 5da689c313, 2019-01-14"
   sodipodi:docname="velocidad.svg">
  <defs
     id="defs2" />
  <sodipodi:namedview
     id="base"
     pagecolor="#ffffff"
     bordercolor="#666666"
     borderopacity="1.0"
     inkscape:pageopacity="0.0"
     inkscape:pageshadow="2"
     inkscape:zoom="3.959798"
     inkscape:cx="15.075023"
     inkscape:cy="42.006713"
     inkscape:document-units="mm"
     inkscape:current-layer="layer1"
     showgrid="false"
     units="px"
     inkscape:window-width="1366"
     inkscape:window-height="674"
     inkscape:window-x="0"
     inkscape:window-y="0"
     inkscape:window-maximized="1" />
  <metadata
     id="metadata5">
    <rdf:RDF>
      <cc:Work
         rdf:about="">
        <dc:format>image/svg+xml</dc:format>
        <dc:type
           rdf:resource="http://purl.org/dc/dcmitype/StillImage" />
        <dc:title></dc:title>
      </cc:Work>
    </rdf:RDF>
  </metadata>
  <g
     inkscape:label="Layer 1"
     inkscape:groupmode="layer"
     id="layer1"
     transform="translate(0,-270.54165)">
    <path
       id="path10"
       d="m 1.1303967,289.36899 c 0,-0.27867 0.0869,-0.51311 0.2715577,-0.70276 0.1846582,-0.17831 0.4019051,-0.26769 0.6517369,-0.26769 h 5.8873566 c 0.8038103,0 1.4881313,0.29005 2.0529733,0.88122 0.5648378,0.59117 0.8472568,1.29391 0.8472568,2.11933 0,0.82542 -0.282413,1.5393 -0.8472568,2.11937 -0.564842,0.58002 -1.249163,0.87002 -2.0529733,0.87002 -0.8038101,0 -1.498995,-0.29005 -2.0638324,-0.88118 -0.1737833,-0.17835 -0.2498148,-0.40179 -0.2498148,-0.66928 0,-0.26771 0.086919,-0.50195 0.2498148,-0.66927 0.1629439,-0.17833 0.3801631,-0.26772 0.651737,-0.26772 0.2498147,0 0.4670786,0.0894 0.6625993,0.26772 0.2172598,0.21205 0.4670744,0.32335 0.7494961,0.32335 0.2824116,0 0.5322523,-0.11167 0.7386367,-0.32335 0.20638,-0.21208 0.3150085,-0.46851 0.3150085,-0.78083 0,-0.29004 -0.1086226,-0.54655 -0.3150085,-0.75851 -0.2063801,-0.21205 -0.4562164,-0.32336 -0.7386367,-0.32336 H 2.053691 c -0.2498319,0 -0.467078,-0.0894 -0.651737,-0.27867 -0.184658,-0.18972 -0.2715577,-0.3904 -0.2715577,-0.65809 z m 0,-3.39099 c 0,-0.26771 0.0869,-0.50194 0.2715577,-0.69155 0.1846582,-0.17835 0.4019051,-0.26772 0.6517369,-0.26772 H 13.5134 c 0.282411,0 0.532248,-0.11168 0.738631,-0.32336 0.206381,-0.21205 0.31501,-0.47963 0.31501,-0.76964 0,-0.29006 -0.108622,-0.55772 -0.31501,-0.76965 -0.206379,-0.21205 -0.456216,-0.32336 -0.738631,-0.32336 -0.304132,0 -0.543117,0.10032 -0.738637,0.3124 -0.195543,0.16737 -0.423631,0.25675 -0.695186,0.25675 -0.260694,0 -0.477941,-0.0894 -0.651736,-0.25675 -0.162944,-0.16738 -0.249815,-0.39039 -0.249815,-0.66927 0,-0.27867 0.07604,-0.50195 0.249815,-0.6804 0.553973,-0.56889 1.249158,-0.84777 2.085559,-0.84777 0.803805,0 1.498993,0.29005 2.06383,0.87007 0.564838,0.58002 0.847258,1.28277 0.847258,2.09702 0,0.81429 -0.282411,1.52817 -0.847258,2.10822 -0.564837,0.58002 -1.249163,0.87003 -2.06383,0.87003 H 2.053691 c -0.2606949,0 -0.4779407,-0.0893 -0.651737,-0.26771 -0.184658,-0.16737 -0.2715577,-0.39038 -0.2715577,-0.64696 z m 2.3353908,-2.63242 c 0,0.0893 0.054304,0.13364 0.1737948,0.13364 h 1.5641699 c 0.086919,0 0.1629441,-0.0557 0.238977,-0.16736 0.238977,-0.60236 0.6300112,-1.10429 1.1405375,-1.50586 0.5213885,-0.40178 1.0970899,-0.62468 1.7271039,-0.66928 l 0.5757013,-0.0894 c 0.1412225,0 0.2172582,-0.0671 0.2172582,-0.18971 l 0.076037,-0.58003 c 0.1194747,-1.20468 0.6082895,-2.21972 1.4881329,-3.03398 0.879846,-0.81431 1.911762,-1.22704 3.106611,-1.22704 1.205715,0 2.248494,0.40178 3.128337,1.21586 0.879846,0.81429 1.37951,1.82935 1.509856,3.04516 l 0.07604,0.65813 c 0,0.1227 0.06516,0.18971 0.184661,0.18971 H 20.4327 c 0.988467,0 1.824863,0.35709 2.530911,1.07081 0.706052,0.7139 1.053641,1.56162 1.053641,2.56555 0,0.99275 -0.347606,1.85161 -1.053641,2.56552 -0.706048,0.71389 -1.542444,1.07083 -2.530911,1.07083 h -7.505834 c -0.130341,0 -0.20638,0.0671 -0.20638,0.18971 v 1.55048 c 0,0.12266 0.06516,0.1897 0.20638,0.1897 H 20.4327 c 0.988467,0 1.890036,-0.24537 2.726435,-0.74734 0.836395,-0.49081 1.488133,-1.17125 1.976933,-2.01899 0.488805,-0.85888 0.727773,-1.78468 0.727773,-2.78862 0,-1.01505 -0.238977,-1.94085 -0.727773,-2.78862 -0.4888,-0.84772 -1.140538,-1.52811 -1.976933,-2.01893 -0.836399,-0.49081 -1.737968,-0.74733 -2.726435,-0.74733 h -0.336728 c -0.336728,-1.48358 -1.097089,-2.69939 -2.281078,-3.64752 -1.173128,-0.94816 -2.530911,-1.41663 -4.051627,-1.41663 -1.531586,0 -2.88937,0.4908 -4.0733591,1.47239 -1.1839893,0.98158 -1.9334839,2.23091 -2.2484895,3.75903 -0.9341573,0.22302 -1.7596906,0.68045 -2.4765999,1.37201 -0.7169136,0.69158 -1.2165776,1.51703 -1.4989978,2.46514 v 0.0447 c 0,0.0211 0,0.0446 0,0.078 z"
       inkscape:connector-curvature="0"
       style="stroke-width:1.10074008;fill:#0277bd;fill-opacity:1" />
  </g>
</svg>
