<?xml version="1.0" encoding="UTF-8" standalone="no"?>
<!-- Created with Inkscape (http://www.inkscape.org/) -->

<svg
   xmlns:dc="http://purl.org/dc/elements/1.1/"
   xmlns:cc="http://creativecommons.org/ns#"
   xmlns:rdf="http://www.w3.org/1999/02/22-rdf-syntax-ns#"
   xmlns:svg="http://www.w3.org/2000/svg"
   xmlns="http://www.w3.org/2000/svg"
   xmlns:sodipodi="http://sodipodi.sourceforge.net/DTD/sodipodi-0.dtd"
   xmlns:inkscape="http://www.inkscape.org/namespaces/inkscape"
   width="100"
   height="100"
   viewBox="0 0 26.458333 26.458334"
   version="1.1"
   id="svg8"
   inkscape:version="0.92.4 5da689c313, 2019-01-14"
   sodipodi:docname="velocidad.svg">
  <defs
     id="defs2" />
  <sodipodi:namedview
     id="base"
     pagecolor="#ffffff"
     bordercolor="#666666"
     borderopacity="1.0"
     inkscape:pageopacity="0.0"
     inkscape:pageshadow="2"
     inkscape:zoom="3.959798"
     inkscape:cx="15.075023"
     inkscape:cy="42.006713"
     inkscape:document-units="mm"
     inkscape:current-layer="layer1"
     showgrid="false"
     units="px"
     inkscape:window-width="1366"
     inkscape:window-height="674"
     inkscape:window-x="0"
     inkscape:window-y="0"
     inkscape:window-maximized="1" />
  <metadata
     id="metadata5">
    <rdf:RDF>
      <cc:Work
         rdf:about="">
        <dc:format>image/svg+xml</dc:format>
        <dc:type
           rdf:resource="http://purl.org/dc/dcmitype/StillImage" />
        <dc:title></dc:title>
      </cc:Work>
    </rdf:RDF>
  </metadata>
  <g
     inkscape:label="Layer 1"
     inkscape:groupmode="layer"
     id="layer1"
     transform="translate(0,-270.54165)">
    <path
       id="path4560"
       d="m 0.1949531,288.82224 c 0,-0.28675 0.0918307,-0.52801 0.28696389,-0.72315 0.19513511,-0.18345 0.42470523,-0.27548 0.68871141,-0.27548 h 6.2213614 c 0.8494093,0 1.5725585,0.29847 2.1694398,0.90679 0.5968814,0.60836 0.8953254,1.33153 0.8953254,2.18093 0,0.84939 -0.298435,1.58401 -0.8953254,2.18094 -0.5968813,0.59685 -1.3200305,0.89529 -2.1694398,0.89529 -0.8494113,0 -1.5840365,-0.29848 -2.1809215,-0.9068 -0.1836334,-0.18344 -0.2639882,-0.41345 -0.2639882,-0.68871 0,-0.27548 0.091846,-0.51652 0.2639882,-0.68871 0.1721873,-0.18346 0.40173,-0.27548 0.6887117,-0.27548 0.2639881,0 0.4935766,0.092 0.7001895,0.27548 0.2295846,0.2182 0.4935787,0.33275 0.7920203,0.33275 0.2984356,0 0.5624456,-0.11506 0.7805364,-0.33275 0.2180888,-0.21823 0.3328811,-0.48212 0.3328811,-0.80351 0,-0.29847 -0.1147983,-0.56242 -0.3328811,-0.78056 -0.2180867,-0.2182 -0.4820968,-0.33275 -0.7805364,-0.33275 H 1.1706284 c -0.2640041,0 -0.49357672,-0.092 -0.68871141,-0.28677 -0.19513506,-0.19521 -0.28696389,-0.40172 -0.28696389,-0.6772 z m 0,-3.48949 c 0,-0.27548 0.0918307,-0.51653 0.28696389,-0.71167 0.19513511,-0.18346 0.42470523,-0.27547 0.68871141,-0.27547 H 13.280474 c 0.298433,0 0.562447,-0.11507 0.780539,-0.33276 0.218089,-0.21823 0.332881,-0.49357 0.332881,-0.79202 0,-0.29847 -0.114798,-0.57391 -0.332881,-0.792 -0.218088,-0.21822 -0.482098,-0.33274 -0.780539,-0.33274 -0.321386,0 -0.573931,0.10332 -0.780543,0.32147 -0.206635,0.17229 -0.447659,0.26419 -0.734624,0.26419 -0.275485,0 -0.505056,-0.092 -0.688712,-0.26419 -0.172186,-0.17228 -0.263988,-0.40175 -0.263988,-0.68872 0,-0.28675 0.08035,-0.51653 0.263988,-0.70016 0.585407,-0.58542 1.320031,-0.8724 2.203879,-0.8724 0.84941,0 1.584033,0.29848 2.180917,0.89536 0.596885,0.59685 0.895324,1.32002 0.895324,2.15793 0,0.83795 -0.298433,1.57256 -0.895324,2.16945 -0.596884,0.5969 -1.320027,0.89532 -2.180917,0.89532 H 1.1706284 c -0.27548396,0 -0.50505461,-0.092 -0.68871141,-0.27549 -0.19513506,-0.17227 -0.28696389,-0.40173 -0.28696389,-0.66576 z m 2.4678811,-2.70891 c 0,0.092 0.057388,0.1376 0.1836333,0.1376 h 1.6529074 c 0.091847,0 0.1721874,-0.0572 0.2525342,-0.1723 0.2525343,-0.61984 0.6657561,-1.13637 1.205246,-1.54959 0.5509699,-0.41345 1.1593309,-0.64281 1.825085,-0.68872 l 0.6083609,-0.092 c 0.1492357,0 0.2295845,-0.069 0.2295845,-0.19522 l 0.080341,-0.59687 c 0.1262443,-1.23969 0.6428005,-2.28421 1.5725625,-3.12212 0.929759,-0.83796 2.020219,-1.26267 3.282858,-1.26267 1.274113,0 2.37605,0.41344 3.305815,1.25116 0.929758,0.83795 1.457772,1.8825 1.595515,3.13363 l 0.08035,0.67727 c 0,0.12623 0.06885,0.19522 0.195139,0.19522 h 1.85952 c 1.044547,0 1.928392,0.36746 2.674497,1.1019 0.746103,0.73465 1.113417,1.60699 1.113417,2.6401 0,1.02157 -0.367328,1.90538 -1.113417,2.64005 -0.746105,0.7346 -1.62995,1.10193 -2.674497,1.10193 h -7.931661 c -0.137751,0 -0.218087,0.069 -0.218087,0.19521 v 1.59552 c 0,0.12623 0.06885,0.19521 0.218087,0.19521 h 7.931661 c 1.044547,0 1.997263,-0.25249 2.88111,-0.76907 0.883845,-0.50505 1.572557,-1.20527 2.089093,-2.07761 0.51653,-0.88385 0.76906,-1.83655 0.76906,-2.86964 0,-1.04454 -0.252533,-1.99725 -0.76906,-2.86963 -0.516536,-0.87237 -1.205248,-1.57253 -2.089093,-2.07761 -0.883847,-0.50507 -1.836563,-0.76904 -2.88111,-0.76904 h -0.35583 c -0.35583,-1.52668 -1.159331,-2.77781 -2.41049,-3.7535 -1.23968,-0.97568 -2.674496,-1.45776 -4.28149,-1.45776 -1.618471,0 -3.053289,0.50507 -4.3044451,1.51516 -1.2511594,1.0101 -2.0431796,2.29573 -2.3760566,3.86823 -0.9871554,0.22952 -1.8595223,0.70021 -2.6171031,1.41187 -0.7575828,0.71167 -1.2855949,1.56111 -1.5840365,2.53677 v 0.0461 c 0,0.0218 0,0.0461 0,0.0804 z"
       inkscape:connector-curvature="0"
       style="stroke-width:1.1478523;fill:#0277bd;fill-opacity:1" />
  </g>
</svg>
