<?xml version="1.0" encoding="UTF-8" standalone="no"?>
<!-- Created with Inkscape (http://www.inkscape.org/) -->

<svg
   xmlns:dc="http://purl.org/dc/elements/1.1/"
   xmlns:cc="http://creativecommons.org/ns#"
   xmlns:rdf="http://www.w3.org/1999/02/22-rdf-syntax-ns#"
   xmlns:svg="http://www.w3.org/2000/svg"
   xmlns="http://www.w3.org/2000/svg"
   xmlns:sodipodi="http://sodipodi.sourceforge.net/DTD/sodipodi-0.dtd"
   xmlns:inkscape="http://www.inkscape.org/namespaces/inkscape"
   width="60"
   height="60"
   viewBox="0 0 15.874999 15.875002"
   version="1.1"
   id="svg8"
   inkscape:version="0.92.4 5da689c313, 2019-01-14"
   sodipodi:docname="temperaturayellowsmall.svg">
  <defs
     id="defs2" />
  <sodipodi:namedview
     id="base"
     pagecolor="#ffffff"
     bordercolor="#666666"
     borderopacity="1.0"
     inkscape:pageopacity="0.0"
     inkscape:pageshadow="2"
     inkscape:zoom="5.6"
     inkscape:cx="2.4270811"
     inkscape:cy="28.432643"
     inkscape:document-units="mm"
     inkscape:current-layer="layer1"
     showgrid="false"
     units="px"
     inkscape:window-width="1366"
     inkscape:window-height="674"
     inkscape:window-x="0"
     inkscape:window-y="0"
     inkscape:window-maximized="1" />
  <metadata
     id="metadata5">
    <rdf:RDF>
      <cc:Work
         rdf:about="">
        <dc:format>image/svg+xml</dc:format>
        <dc:type
           rdf:resource="http://purl.org/dc/dcmitype/StillImage" />
        <dc:title></dc:title>
      </cc:Work>
    </rdf:RDF>
  </metadata>
  <g
     inkscape:label="Layer 1"
     inkscape:groupmode="layer"
     id="layer1"
     transform="translate(0,-281.12499)">
    <path
       id="path4618"
       d="m 4.0303508,293.27993 c 0,-0.60526 0.1424224,-1.16781 0.4201194,-1.69472 0.2777057,-0.52693 0.6693406,-0.9613 1.1749102,-1.3102 v -7.0637 c 0,-0.56966 0.1922634,-1.05383 0.5838933,-1.44547 0.3916362,-0.39164 0.8758388,-0.59814 1.4454938,-0.59814 0.5767744,0 1.060977,0.19942 1.4526145,0.59099 0.3916361,0.39879 0.5910138,0.87588 0.5910138,1.44551 v 7.06371 c 0.5055662,0.3489 0.8900832,0.79037 1.1677902,1.3102 0.277704,0.5198 0.412997,1.08945 0.412997,1.69469 0,0.65508 -0.163763,1.26748 -0.484202,1.8229 -0.320433,0.55542 -0.761914,0.99688 -1.3173269,1.31732 -0.5554102,0.32045 -1.1606638,0.4842 -1.8228866,0.4842 -0.6551036,0 -1.2603571,-0.16362 -1.8157672,-0.4842 -0.5554115,-0.32044 -0.9968937,-0.7619 -1.3244429,-1.31732 -0.3275532,-0.55542 -0.4842066,-1.16064 -0.4842066,-1.81577 z m 1.253238,0 c 0,0.66221 0.2349738,1.23187 0.6978226,1.70185 0.4628425,0.46997 1.0253744,0.70493 1.6804767,0.70493 0.6622201,0 1.2318739,-0.23495 1.7089585,-0.71207 0.4770847,-0.47706 0.7191864,-1.03958 0.7191864,-1.68757 0,-0.4415 -0.1139213,-0.85449 -0.3417924,-1.23187 -0.2278701,-0.3774 -0.5411692,-0.66937 -0.9399273,-0.87588 l -0.1993686,-0.0997 c -0.071206,-0.0285 -0.1068272,-0.0997 -0.1068272,-0.20641 v -7.66183 c 0,-0.22796 -0.078314,-0.42011 -0.2421072,-0.57676 -0.1637647,-0.14971 -0.3631528,-0.22796 -0.6052562,-0.22796 -0.22787,0 -0.4272412,0.0783 -0.5910151,0.22796 -0.1637637,0.14957 -0.2421072,0.34177 -0.2421072,0.57676 v 7.64758 c 0,0.10676 -0.035597,0.17793 -0.099679,0.20644 l -0.1922651,0.0997 c -0.3916374,0.20642 -0.6978227,0.49844 -0.9185644,0.87582 -0.2207379,0.3774 -0.3275518,0.7833 -0.3275493,1.23901 z m 0.5554115,0 c 0,0.50555 0.1708955,0.93994 0.5198049,1.29596 0.3489132,0.35602 0.7619123,0.53407 1.2532381,0.53407 0.4913257,0 0.9114453,-0.17792 1.2745967,-0.53407 0.3631558,-0.35602 0.5411719,-0.79041 0.5411719,-1.28882 0,-0.44862 -0.1566573,-0.8474 -0.4628452,-1.18916 -0.3061862,-0.3418 -0.6835828,-0.5483 -1.1250612,-0.60525 v -5.24082 c 0,-0.0429 -0.021261,-0.0927 -0.071205,-0.13547 -0.049853,-0.0497 -0.099679,-0.0713 -0.1566586,-0.0713 -0.064083,0 -0.1139239,0.0214 -0.1495272,0.057 -0.035597,0.0429 -0.056976,0.0857 -0.056976,0.14957 v 5.22657 c -0.4343605,0.0641 -0.804634,0.26348 -1.110823,0.60527 -0.3061889,0.34892 -0.4557204,0.74056 -0.4557204,1.19627 z"
       inkscape:connector-curvature="0"
       style="fill:#ff6f00;fill-opacity:1;stroke-width:0.71206611" />
  </g>
</svg>
