<?xml version="1.0" encoding="UTF-8" standalone="no"?>
<!-- Generator: Adobe Illustrator 19.0.0, SVG Export Plug-In . SVG Version: 6.00 Build 0)  -->

<svg
   xmlns:dc="http://purl.org/dc/elements/1.1/"
   xmlns:cc="http://creativecommons.org/ns#"
   xmlns:rdf="http://www.w3.org/1999/02/22-rdf-syntax-ns#"
   xmlns:svg="http://www.w3.org/2000/svg"
   xmlns="http://www.w3.org/2000/svg"
   xmlns:sodipodi="http://sodipodi.sourceforge.net/DTD/sodipodi-0.dtd"
   xmlns:inkscape="http://www.inkscape.org/namespaces/inkscape"
   version="1.1"
   id="Layer_1"
   x="0px"
   y="0px"
   viewBox="0 0 60 60"
   xml:space="preserve"
   sodipodi:docname="ph.svg"
   width="60"
   height="60"
   inkscape:version="0.92.4 5da689c313, 2019-01-14"><metadata
   id="metadata77"><rdf:RDF><cc:Work
       rdf:about=""><dc:format>image/svg+xml</dc:format><dc:type
         rdf:resource="http://purl.org/dc/dcmitype/StillImage" /><dc:title></dc:title></cc:Work></rdf:RDF></metadata><defs
   id="defs75" /><sodipodi:namedview
   pagecolor="#ffffff"
   bordercolor="#666666"
   borderopacity="1"
   objecttolerance="10"
   gridtolerance="10"
   guidetolerance="10"
   inkscape:pageopacity="0"
   inkscape:pageshadow="2"
   inkscape:window-width="1366"
   inkscape:window-height="674"
   id="namedview73"
   showgrid="false"
   inkscape:zoom="10.429825"
   inkscape:cx="33.790692"
   inkscape:cy="52.283093"
   inkscape:window-x="0"
   inkscape:window-y="0"
   inkscape:window-maximized="1"
   inkscape:current-layer="Layer_1" />
<path
   style="fill:#439ee8;stroke-width:0.11662449"
   d="m 34.022328,48.454859 h -6.980909 c -0.516414,0 -0.934982,0.418566 -0.934982,0.934978 v 9.474105 c 0,0.516299 0.418454,0.934982 0.934982,0.934982 h 6.980909 c 0.516414,0 0.934977,-0.418564 0.934977,-0.934982 v -9.474105 c 0,-0.516412 -0.418563,-0.934978 -0.934977,-0.934978 z"
   id="path2"
   inkscape:connector-curvature="0" />
<path
   style="fill:#5293c4;stroke-width:0.11662449"
   d="m 34.957305,51.882917 v -2.493196 c 0,-0.516296 -0.418563,-0.934979 -0.934977,-0.934979 h -4.737056 -2.243853 c -0.5163,0 -0.934982,0.418566 -0.934982,0.934979 v 2.493196 6.980912 c 0,0.516292 0.418568,0.934982 0.934982,0.934982 h 2.243853 c -0.51641,0 -0.934977,-0.41857 -0.934977,-0.934982 v -6.54462 c 0,-0.240942 0.195345,-0.436292 0.436294,-0.436292 z"
   id="path4"
   inkscape:connector-curvature="0" />
<path
   style="fill:#5cc4e0;stroke-width:0.11662449"
   d="M 44.992375,0.08707009 H 16.071367 c -0.516294,0 -0.934976,0.4185651 -0.934976,0.93497791 v 26.427925 c 0,0.27745 0.123273,0.540555 0.336344,0.718173 l 8.414922,7.012281 c 0.142166,0.118373 0.224269,0.293777 0.224269,0.47886 v 13.73055 c 0,0.516297 0.418567,0.934979 0.934981,0.934979 h 10.970048 c 0.516299,0 0.93498,-0.418565 0.93498,-0.934979 V 35.65917 c 0,-0.184966 0.0821,-0.36037 0.22427,-0.47886 l 8.414922,-7.01228 c 0.213191,-0.177619 0.336344,-0.440724 0.336344,-0.718173 V 1.022048 C 45.927237,0.50563519 45.508674,0.08707009 44.992375,0.08707009 Z"
   id="path6"
   inkscape:connector-curvature="0" />
<path
   style="fill:#439ee8;stroke-width:0.11662449"
   d="M 26.480457,49.389721 V 35.65917 c 0,-0.184966 -0.0821,-0.36037 -0.224269,-0.47886 L 17.841261,28.16803 C 17.628075,27.990411 17.504917,27.727189 17.504917,27.44974 V 1.022048 c 0,-0.51629639 0.418447,-0.93497791 0.934981,-0.93497791 h -2.368531 c -0.516294,0 -0.934976,0.4185651 -0.934976,0.93497791 V 27.44974 c 0,0.277449 0.123153,0.540671 0.336344,0.71829 l 8.414922,7.01228 c 0.142166,0.118374 0.224269,0.293778 0.224269,0.47886 v 13.730551 c 0,0.516296 0.418567,0.934978 0.934981,0.934978 h 2.368527 c -0.51653,0 -0.934977,-0.418565 -0.934977,-0.934978 z"
   id="path8"
   inkscape:connector-curvature="0" />
<g
   id="g20"
   transform="matrix(0.11662449,0,0,0.11662449,0.6760043,0.08707009)">
	<path
   style="fill:#bee7f3"
   d="m 259.207,33.136 h -7.482 c -4.428,0 -8.017,-3.589 -8.017,-8.017 0,-4.428 3.588,-8.017 8.017,-8.017 h 7.482 c 4.428,0 8.017,3.589 8.017,8.017 0,4.428 -3.589,8.017 -8.017,8.017 z"
   id="path10"
   inkscape:connector-curvature="0" />
	<path
   style="fill:#bee7f3"
   d="m 296.618,33.136 h -7.482 c -4.428,0 -8.017,-3.589 -8.017,-8.017 0,-4.428 3.588,-8.017 8.017,-8.017 h 7.482 c 4.428,0 8.017,3.589 8.017,8.017 0,4.428 -3.589,8.017 -8.017,8.017 z"
   id="path12"
   inkscape:connector-curvature="0" />
	<path
   style="fill:#bee7f3"
   d="m 334.029,33.136 h -7.482 c -4.428,0 -8.017,-3.589 -8.017,-8.017 0,-4.428 3.588,-8.017 8.017,-8.017 h 7.482 c 4.428,0 8.017,3.589 8.017,8.017 0,4.428 -3.588,8.017 -8.017,8.017 z"
   id="path14"
   inkscape:connector-curvature="0" />
	<path
   style="fill:#bee7f3"
   d="m 222.864,33.136 h -7.482 c -4.428,0 -8.017,-3.589 -8.017,-8.017 0,-4.428 3.588,-8.017 8.017,-8.017 h 7.482 c 4.428,0 8.017,3.589 8.017,8.017 0,4.428 -3.588,8.017 -8.017,8.017 z"
   id="path16"
   inkscape:connector-curvature="0" />
	<path
   style="fill:#bee7f3"
   d="m 185.453,33.136 h -7.482 c -4.428,0 -8.017,-3.589 -8.017,-8.017 0,-4.428 3.588,-8.017 8.017,-8.017 h 7.482 c 4.428,0 8.017,3.589 8.017,8.017 0,4.428 -3.589,8.017 -8.017,8.017 z"
   id="path18"
   inkscape:connector-curvature="0" />
</g>
<path
   style="fill:#5293c4;stroke-width:0.11662449"
   d="M 41.003238,5.0734667 H 20.060509 c -0.516414,0 -0.934976,0.418565 -0.934976,0.9349785 V 23.460716 c 0,0.516297 0.418448,0.934979 0.934976,0.934979 h 20.942729 c 0.516409,0 0.934976,-0.418565 0.934976,-0.934979 V 6.0083288 c 0,-0.5162971 -0.418567,-0.9348621 -0.934976,-0.9348621 z"
   id="path22"
   inkscape:connector-curvature="0" />
<path
   style="fill:#e0dddf;stroke-width:0.11662449"
   d="M 20.995486,22.089445 V 7.379599 c 0,-0.2409461 0.19535,-0.4362917 0.436294,-0.4362917 h 18.200182 c 0.240949,0 0.436294,0.1953456 0.436294,0.4362917 v 14.709846 c 0,0.240947 -0.195345,0.436293 -0.436294,0.436293 H 21.43178 c -0.240944,0 -0.436294,-0.195346 -0.436294,-0.436293 z"
   id="path24"
   inkscape:connector-curvature="0" />
<path
   style="fill:#f9f8f9;stroke-width:0.11662449"
   d="M 22.179694,21.71543 H 38.75938 c 0.240944,0 0.436294,-0.195345 0.436294,-0.436292 V 8.1899067 c 0,-0.2409466 -0.19535,-0.4362929 -0.436294,-0.4362929 H 22.179694 c -0.240948,0 -0.436293,0.1953463 -0.436293,0.4362929 V 21.279138 c 0,0.240947 0.195345,0.436292 0.436293,0.436292 z"
   id="path26"
   inkscape:connector-curvature="0" />
<g
   id="g32"
   transform="matrix(0.11662449,0,0,0.11662449,0.6760043,0.08707009)">
	<path
   style="fill:#ff675c"
   d="m 238.898,76.96 h -42.756 c -4.428,0 -8.017,3.589 -8.017,8.017 v 81.236 c 0,4.427 3.588,8.017 8.017,8.017 4.429,0 8.017,-3.589 8.017,-8.017 v -34.739 h 34.739 c 4.428,0 8.017,-3.589 8.017,-8.017 v -38.48 c -0.001,-4.427 -3.589,-8.017 -8.017,-8.017 z m -8.017,38.481 H 204.159 V 92.994 h 26.722 z"
   id="path28"
   inkscape:connector-curvature="0" />
	<path
   style="fill:#ff675c"
   d="m 315.858,76.96 c -4.428,0 -8.017,3.589 -8.017,8.017 V 115.44 H 272.568 V 84.977 c 0,-4.427 -3.588,-8.017 -8.017,-8.017 -4.429,0 -8.017,3.589 -8.017,8.017 v 81.236 c 0,4.427 3.588,8.017 8.017,8.017 4.429,0 8.017,-3.589 8.017,-8.017 v -34.739 h 35.273 v 34.739 c 0,4.427 3.588,8.017 8.017,8.017 4.428,0 8.017,-3.589 8.017,-8.017 V 84.977 c 0,-4.427 -3.589,-8.017 -8.017,-8.017 z"
   id="path30"
   inkscape:connector-curvature="0" />
</g>
<path
   style="fill:#f78b4f;stroke-width:0.11662449"
   d="m 25.794817,25.953797 c -1.752865,0 -3.178829,1.426085 -3.178829,3.178834 0,1.752867 1.425964,3.178833 3.178829,3.178833 1.75287,0 3.178834,-1.425966 3.178834,-3.178833 0,-1.752632 -1.425964,-3.178834 -3.178834,-3.178834 z"
   id="path34"
   inkscape:connector-curvature="0" />
<path
   style="fill:#fbefa5;stroke-width:0.11662449"
   d="m 25.794817,26.95117 c 1.202986,0 2.181579,0.978596 2.181579,2.181577 0,1.202982 -0.978593,2.181578 -2.181579,2.181578 -1.202981,0 -2.181574,-0.978596 -2.181574,-2.181578 0,-1.203097 0.978593,-2.181577 2.181574,-2.181577 m 0,-0.997373 c -1.752865,0 -3.178829,1.426085 -3.178829,3.178834 0,1.752867 1.425964,3.178833 3.178829,3.178833 1.75287,0 3.178834,-1.425966 3.178834,-3.178833 0,-1.752632 -1.425964,-3.178834 -3.178834,-3.178834 z"
   id="path36"
   inkscape:connector-curvature="0" />
<path
   style="fill:#f78b4f;stroke-width:0.11662449"
   d="m 35.268925,25.953797 c -1.75275,0 -3.178833,1.426085 -3.178833,3.178834 0,1.752867 1.426083,3.178833 3.178833,3.178833 1.75275,0 3.178834,-1.425966 3.178834,-3.178833 0,-1.752632 -1.426084,-3.178834 -3.178834,-3.178834 z"
   id="path38"
   inkscape:connector-curvature="0" />
<path
   style="fill:#fbefa5;stroke-width:0.11662449"
   d="m 35.268925,26.95117 c 1.202981,0 2.181579,0.978596 2.181579,2.181577 0,1.202982 -0.978598,2.181578 -2.181579,2.181578 -1.202981,0 -2.181578,-0.978596 -2.181578,-2.181578 0,-1.203097 0.978597,-2.181577 2.181578,-2.181577 m 0,-0.997373 c -1.752864,0 -3.178833,1.426085 -3.178833,3.178834 0,1.752867 1.425969,3.178833 3.178833,3.178833 1.752865,0 3.178834,-1.425966 3.178834,-3.178833 0,-1.752632 -1.425969,-3.178834 -3.178834,-3.178834 z"
   id="path40"
   inkscape:connector-curvature="0" />
<g
   id="g42"
   transform="translate(0,-452)">
</g>
<g
   id="g44"
   transform="translate(0,-452)">
</g>
<g
   id="g46"
   transform="translate(0,-452)">
</g>
<g
   id="g48"
   transform="translate(0,-452)">
</g>
<g
   id="g50"
   transform="translate(0,-452)">
</g>
<g
   id="g52"
   transform="translate(0,-452)">
</g>
<g
   id="g54"
   transform="translate(0,-452)">
</g>
<g
   id="g56"
   transform="translate(0,-452)">
</g>
<g
   id="g58"
   transform="translate(0,-452)">
</g>
<g
   id="g60"
   transform="translate(0,-452)">
</g>
<g
   id="g62"
   transform="translate(0,-452)">
</g>
<g
   id="g64"
   transform="translate(0,-452)">
</g>
<g
   id="g66"
   transform="translate(0,-452)">
</g>
<g
   id="g68"
   transform="translate(0,-452)">
</g>
<g
   id="g70"
   transform="translate(0,-452)">
</g>
</svg>