<?xml version="1.0" encoding="UTF-8" standalone="no"?>
<!-- Created with Inkscape (http://www.inkscape.org/) -->

<svg
   xmlns:dc="http://purl.org/dc/elements/1.1/"
   xmlns:cc="http://creativecommons.org/ns#"
   xmlns:rdf="http://www.w3.org/1999/02/22-rdf-syntax-ns#"
   xmlns:svg="http://www.w3.org/2000/svg"
   xmlns="http://www.w3.org/2000/svg"
   xmlns:sodipodi="http://sodipodi.sourceforge.net/DTD/sodipodi-0.dtd"
   xmlns:inkscape="http://www.inkscape.org/namespaces/inkscape"
   width="100"
   height="100"
   viewBox="0 0 26.458333 26.458334"
   version="1.1"
   id="svg8"
   inkscape:version="0.92.4 5da689c313, 2019-01-14"
   sodipodi:docname="humedad.svg">
  <defs
     id="defs2" />
  <sodipodi:namedview
     id="base"
     pagecolor="#ffffff"
     bordercolor="#666666"
     borderopacity="1.0"
     inkscape:pageopacity="0.0"
     inkscape:pageshadow="2"
     inkscape:zoom="3.959798"
     inkscape:cx="15.075023"
     inkscape:cy="42.006713"
     inkscape:document-units="mm"
     inkscape:current-layer="layer1"
     showgrid="false"
     units="px"
     inkscape:window-width="1366"
     inkscape:window-height="674"
     inkscape:window-x="0"
     inkscape:window-y="0"
     inkscape:window-maximized="1" />
  <metadata
     id="metadata5">
    <rdf:RDF>
      <cc:Work
         rdf:about="">
        <dc:format>image/svg+xml</dc:format>
        <dc:type
           rdf:resource="http://purl.org/dc/dcmitype/StillImage" />
        <dc:title></dc:title>
      </cc:Work>
    </rdf:RDF>
  </metadata>
  <g
     inkscape:label="Layer 1"
     inkscape:groupmode="layer"
     id="layer1"
     transform="translate(0,-270.54165)">
    <path
       id="path4589"
       d="m 3.5184624,286.56869 c 0,-1.19185 0.3250416,-2.5597 0.9751229,-4.10366 0.6500832,-1.54393 1.4897742,-3.04724 2.5190711,-4.48286 2.1127676,-2.78993 3.9546716,-4.90269 5.4986176,-6.32473 l 1.01575,-0.97519 c 0.338606,0.35218 0.717798,0.67723 1.1241,0.97519 0.555284,0.5688 1.408514,1.50328 2.546159,2.83052 1.137644,1.3273 2.126312,2.50552 2.938915,3.58902 0.96158,1.36789 1.787726,2.84412 2.451352,4.40162 0.663628,1.55747 1.002207,2.92536 1.002207,4.1036 0,1.35438 -0.257319,2.64097 -0.785513,3.87341 -0.52819,1.23246 -1.232449,2.30237 -2.126312,3.19626 -0.893863,0.89383 -1.963793,1.61165 -3.20978,2.13986 -1.245992,0.52819 -2.559702,0.79903 -3.941128,0.79903 -1.354337,0 -2.640956,-0.25747 -3.8734057,-0.77195 C 8.4211687,295.30417 7.351241,294.61343 6.457378,293.71959 5.563515,292.83927 4.8457148,291.76934 4.3175265,290.5369 3.7893321,289.30447 3.5184624,287.97717 3.5184624,286.56869 Z m 3.0608084,-3.96821 c 0,1.12406 0.2302407,2.01796 0.7042533,2.69513 0.4739986,0.6636 1.1918166,1.0022 2.1534025,1.0022 0.9751224,0 1.6929214,-0.33835 2.1804824,-1.0022 0.473999,-0.66366 0.7178,-1.5575 0.731343,-2.69513 -0.01387,-1.13766 -0.257319,-2.03155 -0.731343,-2.7087 -0.473997,-0.6636 -1.20536,-1.0022 -2.1804824,-1.0022 -0.9615859,0 -1.6793841,0.33834 -2.1534025,1.0022 -0.4739967,0.67715 -0.7042533,1.57104 -0.7042533,2.7087 z m 2.1263126,0 c 0,-0.20322 0,-0.36549 0,-0.474 0,-0.10855 0.013272,-0.25749 0.027138,-0.44687 0.013272,-0.18937 0.027137,-0.33835 0.067725,-0.43357 0.040429,-0.0947 0.067725,-0.2165 0.121881,-0.32503 0.054156,-0.10855 0.1218809,-0.20322 0.2031646,-0.24365 0.094803,-0.0543 0.1896058,-0.0814 0.3114749,-0.0814 0.1896058,0 0.3386064,0.0543 0.4469206,0.16223 0.1083716,0.10855 0.1896055,0.28459 0.2302405,0.51468 0.04043,0.24366 0.06773,0.43357 0.08123,0.60945 0.01327,0.17609 0.01327,0.40642 0.01327,0.70422 0,0.31175 0,0.54178 -0.01327,0.70431 -0.01327,0.16223 -0.04043,0.36546 -0.08123,0.60942 -0.04043,0.23036 -0.1218808,0.40643 -0.2302405,0.51465 -0.1083717,0.10855 -0.2573208,0.16223 -0.4469206,0.16223 -0.121881,0 -0.216676,-0.0256 -0.3114749,-0.0814 -0.094803,-0.0543 -0.1625277,-0.13568 -0.2031646,-0.24364 -0.054156,-0.10855 -0.094803,-0.23035 -0.121881,-0.32505 -0.027137,-0.10855 -0.054156,-0.25747 -0.067725,-0.43355 -0.013866,-0.18937 -0.027138,-0.33835 -0.027138,-0.43357 0,-0.0947 0,-0.25747 0,-0.46068 z m 0.7990581,10.49612 h 1.7877275 l 6.75815,-14.54563 H 16.22216 Z m 5.8236535,-4.0495 c 0.01387,1.13763 0.270885,2.03152 0.744888,2.70869 0.473997,0.66364 1.20536,1.00219 2.16694,1.00219 0.975122,0 1.692921,-0.33835 2.166945,-1.00219 0.473997,-0.6636 0.704253,-1.57106 0.717798,-2.70869 -0.01327,-1.13766 -0.243807,-2.03149 -0.717798,-2.69513 -0.473999,-0.6636 -1.191823,-1.00221 -2.166945,-1.00221 -0.96158,0 -1.692924,0.33835 -2.16694,1.00221 -0.487561,0.66364 -0.731343,1.55747 -0.744888,2.69513 z m 2.126312,0 c 0,-0.31175 0,-0.54172 0.01327,-0.70425 0.01387,-0.16223 0.04043,-0.36549 0.08123,-0.60945 0.04043,-0.24364 0.121881,-0.40642 0.230243,-0.51464 0.108372,-0.10855 0.257319,-0.16223 0.446919,-0.16223 0.12188,0 0.23024,0.0256 0.325041,0.0814 0.0948,0.0543 0.162528,0.13569 0.216676,0.25747 0.05416,0.12183 0.0948,0.23034 0.13545,0.32504 0.04043,0.0947 0.05416,0.24366 0.06772,0.43357 l 0.01327,0.43354 v 0.4607 c 0,0.21651 0,0.3793 0,0.474 l -0.01327,0.43354 -0.06772,0.43357 -0.13545,0.32504 -0.216676,0.25749 -0.325041,0.0814 c -0.189606,0 -0.338607,-0.0543 -0.446919,-0.16283 -0.108372,-0.10855 -0.189606,-0.2846 -0.230243,-0.51464 -0.04043,-0.24366 -0.06773,-0.44688 -0.08123,-0.6095 -0.01327,-0.16223 -0.01327,-0.40643 -0.01327,-0.7178 z"
       inkscape:connector-curvature="0"
       style="stroke-width:1.35433841;fill:#0277bd;fill-opacity:1" />
  </g>
</svg>
