<?xml version="1.0" encoding="UTF-8" standalone="no"?>
<!-- Created with Inkscape (http://www.inkscape.org/) -->

<svg
   xmlns:dc="http://purl.org/dc/elements/1.1/"
   xmlns:cc="http://creativecommons.org/ns#"
   xmlns:rdf="http://www.w3.org/1999/02/22-rdf-syntax-ns#"
   xmlns:svg="http://www.w3.org/2000/svg"
   xmlns="http://www.w3.org/2000/svg"
   xmlns:sodipodi="http://sodipodi.sourceforge.net/DTD/sodipodi-0.dtd"
   xmlns:inkscape="http://www.inkscape.org/namespaces/inkscape"
   width="60"
   height="60"
   viewBox="0 0 15.875 15.875001"
   version="1.1"
   id="svg8"
   inkscape:version="0.92.5 (2060ec1f9f, 2020-04-08)"
   sodipodi:docname="humedadpurpleSmall.svg">
  <defs
     id="defs2" />
  <sodipodi:namedview
     id="base"
     pagecolor="#ffffff"
     bordercolor="#666666"
     borderopacity="1.0"
     inkscape:pageopacity="0.0"
     inkscape:pageshadow="2"
     inkscape:zoom="5.6"
     inkscape:cx="9.1161085"
     inkscape:cy="42.851969"
     inkscape:document-units="mm"
     inkscape:current-layer="layer1"
     showgrid="false"
     units="px"
     inkscape:window-width="1360"
     inkscape:window-height="728"
     inkscape:window-x="0"
     inkscape:window-y="0"
     inkscape:window-maximized="1" />
  <metadata
     id="metadata5">
    <rdf:RDF>
      <cc:Work
         rdf:about="">
        <dc:format>image/svg+xml</dc:format>
        <dc:type
           rdf:resource="http://purl.org/dc/dcmitype/StillImage" />
        <dc:title></dc:title>
      </cc:Work>
    </rdf:RDF>
  </metadata>
  <g
     inkscape:label="Layer 1"
     inkscape:groupmode="layer"
     id="layer1"
     transform="translate(0,-281.12498)">
    <path
       id="path4589"
       d="m 1.9475842,290.80852 c 0,-0.72135 0.1967269,-1.54921 0.5901794,-2.48367 0.3934537,-0.93445 0.9016649,-1.84431 1.5246325,-2.7132 1.278723,-1.68856 2.3935095,-2.96729 3.3279612,-3.82795 l 0.6147681,-0.59023 c 0.2049362,0.21315 0.4344372,0.40989 0.6803464,0.59023 0.3360765,0.34425 0.8524826,0.90984 1.5410262,1.71313 0.688543,0.80333 1.28692,1.51644 1.778737,2.17221 0.581983,0.8279 1.081995,1.72136 1.483646,2.66401 0.401651,0.94264 0.606572,1.77053 0.606572,2.48365 0,0.81972 -0.155738,1.59841 -0.475421,2.34433 -0.31968,0.74593 -0.745922,1.39349 -1.28692,1.93449 -0.540999,0.54098 -1.188559,0.97543 -1.942675,1.29512 -0.7541184,0.31967 -1.5492235,0.4836 -2.3853116,0.4836 -0.8196931,0 -1.5984013,-0.15582 -2.3443242,-0.46721 -0.7459228,-0.31149 -1.3934816,-0.72954 -1.9344795,-1.27053 -0.5409982,-0.5328 -0.9754367,-1.18035 -1.2951152,-1.92628 -0.3196823,-0.7459 -0.4836223,-1.54923 -0.4836223,-2.4017 z m 1.8525113,-2.4017 c 0,0.68032 0.13935,1.22135 0.4262395,1.63118 0.286881,0.40165 0.7213303,0.60658 1.3033167,0.60658 0.5901791,0 1.0246168,-0.20478 1.3197063,-0.60658 0.2868813,-0.40166 0.4344384,-0.94265 0.4426352,-1.63118 -0.00839,-0.68855 -0.1557387,-1.22956 -0.4426352,-1.6394 -0.2868799,-0.40163 -0.7295272,-0.60657 -1.3197063,-0.60657 -0.5819864,0 -1.0164237,0.20478 -1.3033167,0.60657 -0.2868798,0.40984 -0.4262395,0.95085 -0.4262395,1.6394 z m 1.286921,0 c 0,-0.12299 0,-0.2212 0,-0.28689 0,-0.0657 0.00803,-0.15583 0.016425,-0.27045 0.00803,-0.11461 0.016425,-0.20478 0.04099,-0.26241 0.024468,-0.0573 0.04099,-0.13103 0.073767,-0.19672 0.032778,-0.0657 0.073767,-0.123 0.1229625,-0.14747 0.057378,-0.0329 0.1147563,-0.0493 0.1885158,-0.0493 0.1147563,0 0.2049369,0.0328 0.2704925,0.0982 0.06559,0.0657 0.1147561,0.17224 0.1393499,0.3115 0.024469,0.14747 0.040993,0.26241 0.049163,0.36886 0.00803,0.10657 0.00803,0.24598 0.00803,0.42622 0,0.18868 0,0.32791 -0.00803,0.42628 -0.00803,0.0982 -0.024469,0.22119 -0.049163,0.36884 -0.024469,0.13942 -0.073767,0.24599 -0.1393499,0.31149 -0.065591,0.0657 -0.1557397,0.0982 -0.2704925,0.0982 -0.073767,0 -0.1311401,-0.0155 -0.1885158,-0.0493 -0.057378,-0.0329 -0.098368,-0.0821 -0.1229625,-0.14747 -0.032778,-0.0657 -0.057377,-0.13941 -0.073767,-0.19673 -0.016425,-0.0657 -0.032778,-0.15582 -0.04099,-0.2624 -0.00839,-0.11461 -0.016425,-0.20478 -0.016425,-0.26241 0,-0.0573 0,-0.15583 0,-0.27882 z m 0.4836187,6.35263 h 1.0819969 l 4.0902759,-8.80353 H 9.6363186 Z m 3.5246843,-2.4509 c 0.00848,0.68853 0.163949,1.22954 0.4508326,1.63939 0.2868803,0.40166 0.7295269,0.60658 1.3115089,0.60658 0.59018,0 1.024617,-0.2048 1.311514,-0.60658 0.28688,-0.40163 0.42624,-0.95086 0.434437,-1.63939 -0.008,-0.68856 -0.14756,-1.22954 -0.434437,-1.63119 -0.286881,-0.40164 -0.721334,-0.60658 -1.311514,-0.60658 -0.581982,0 -1.0246176,0.20479 -1.3115089,0.60658 -0.29509,0.40165 -0.4426349,0.94263 -0.4508326,1.63119 z m 1.2869195,0 c 0,-0.18869 0,-0.32788 0.008,-0.42624 0.0085,-0.0982 0.02446,-0.22121 0.04916,-0.36886 0.02446,-0.14746 0.07376,-0.24598 0.139351,-0.31148 0.0656,-0.0657 0.15574,-0.0982 0.270492,-0.0982 0.07376,0 0.139349,0.0155 0.196727,0.0493 0.05738,0.0329 0.09837,0.0821 0.13114,0.15583 0.03277,0.0737 0.05738,0.1394 0.08198,0.19673 0.02446,0.0573 0.03278,0.14747 0.04098,0.26241 l 0.008,0.26239 v 0.27884 c 0,0.13104 0,0.22957 0,0.28687 l -0.008,0.2624 -0.04098,0.26241 -0.08198,0.19673 -0.13114,0.15584 -0.196727,0.0492 c -0.114756,0 -0.204937,-0.0329 -0.270492,-0.0985 -0.06559,-0.0657 -0.114756,-0.17225 -0.139351,-0.31148 -0.02446,-0.14747 -0.04099,-0.27046 -0.04916,-0.3689 -0.008,-0.0982 -0.008,-0.24598 -0.008,-0.43443 z"
       inkscape:connector-curvature="0"
       style="fill:#4a148c;fill-opacity:1;stroke-width:0.81969434" />
  </g>
</svg>
